<svg width="47" height="64" viewBox="0 0 47 64" fill="none" xmlns="http://www.w3.org/2000/svg">
<g filter="url(#filter0_d_709_111)">
<path d="M8.25 2.70099C8.25 2.18524 8.02612 1.69061 7.6276 1.32592C7.22909 0.961229 6.68859 0.756348 6.125 0.756348C5.56142 0.756348 5.02091 0.961229 4.6224 1.32592C4.22388 1.69061 4 2.18524 4 2.70099V14.3689C3.9995 16.6104 4.84529 18.7832 6.39422 20.5196C7.94316 22.256 10.1001 23.4493 12.5 23.8976V53.2618C12.5 53.7776 12.7239 54.2722 13.1224 54.6369C13.5209 55.0016 14.0614 55.2064 14.625 55.2064C15.1886 55.2064 15.7291 55.0016 16.1276 54.6369C16.5261 54.2722 16.75 53.7776 16.75 53.2618V23.8976C19.1499 23.4493 21.3068 22.256 22.8558 20.5196C24.4047 18.7832 25.2505 16.6104 25.25 14.3689V2.70099C25.25 2.18524 25.0261 1.69061 24.6276 1.32592C24.2291 0.961229 23.6886 0.756348 23.125 0.756348C22.5614 0.756348 22.0209 0.961229 21.6224 1.32592C21.2239 1.69061 21 2.18524 21 2.70099V14.3689C21.0007 15.5758 20.5923 16.7533 19.8311 17.7389C19.07 18.7246 17.9935 19.4699 16.75 19.8722V2.70099C16.75 2.18524 16.5261 1.69061 16.1276 1.32592C15.7291 0.961229 15.1886 0.756348 14.625 0.756348C14.0614 0.756348 13.5209 0.961229 13.1224 1.32592C12.7239 1.69061 12.5 2.18524 12.5 2.70099V19.8722C11.2565 19.4699 10.18 18.7246 9.41887 17.7389C8.65769 16.7533 8.24931 15.5758 8.25 14.3689V2.70099ZM38 53.2618V27.9814H31.625C31.0614 27.9814 30.5209 27.7765 30.1224 27.4118C29.7239 27.0471 29.5 26.5525 29.5 26.0368V10.4796C29.5 7.90098 30.8855 5.48962 32.7767 3.75499C34.6722 2.02426 37.3073 0.756348 40.125 0.756348C40.6886 0.756348 41.2291 0.961229 41.6276 1.32592C42.0261 1.69061 42.25 2.18524 42.25 2.70099V53.2618C42.25 53.7776 42.0261 54.2722 41.6276 54.6369C41.2291 55.0016 40.6886 55.2064 40.125 55.2064C39.5614 55.2064 39.0209 55.0016 38.6224 54.6369C38.2239 54.2722 38 53.7776 38 53.2618Z" fill="#451412"/>
</g>
<defs>
<filter id="filter0_d_709_111" x="0" y="0.756348" width="46.25" height="62.4501" filterUnits="userSpaceOnUse" color-interpolation-filters="sRGB">
<feFlood flood-opacity="0" result="BackgroundImageFix"/>
<feColorMatrix in="SourceAlpha" type="matrix" values="0 0 0 0 0 0 0 0 0 0 0 0 0 0 0 0 0 0 127 0" result="hardAlpha"/>
<feOffset dy="4"/>
<feGaussianBlur stdDeviation="2"/>
<feComposite in2="hardAlpha" operator="out"/>
<feColorMatrix type="matrix" values="0 0 0 0 0 0 0 0 0 0 0 0 0 0 0 0 0 0 0.25 0"/>
<feBlend mode="normal" in2="BackgroundImageFix" result="effect1_dropShadow_709_111"/>
<feBlend mode="normal" in="SourceGraphic" in2="effect1_dropShadow_709_111" result="shape"/>
</filter>
</defs>
</svg>
