<svg width="25" height="25" viewBox="0 0 25 25" fill="none" xmlns="http://www.w3.org/2000/svg">
<path d="M2.77778 0.892857C2.77778 0.656057 2.63145 0.428955 2.37098 0.261512C2.11051 0.0940686 1.75725 0 1.38889 0C1.02053 0 0.667264 0.0940686 0.406797 0.261512C0.146329 0.428955 1.44762e-07 0.656057 1.44762e-07 0.892857V6.25C-0.000326598 7.27915 0.552477 8.27677 1.56485 9.07402C2.57723 9.87127 3.98699 10.4192 5.55556 10.625V24.1071C5.55556 24.3439 5.70188 24.571 5.96235 24.7385C6.22282 24.9059 6.57609 25 6.94444 25C7.3128 25 7.66607 24.9059 7.92654 24.7385C8.187 24.571 8.33333 24.3439 8.33333 24.1071V10.625C9.90189 10.4192 11.3117 9.87127 12.324 9.07402C13.3364 8.27677 13.8892 7.27915 13.8889 6.25V0.892857C13.8889 0.656057 13.7426 0.428955 13.4821 0.261512C13.2216 0.0940686 12.8684 0 12.5 0C12.1316 0 11.7784 0.0940686 11.5179 0.261512C11.2574 0.428955 11.1111 0.656057 11.1111 0.892857V6.25C11.1116 6.80415 10.8446 7.34476 10.3471 7.7973C9.84964 8.24985 9.14605 8.59207 8.33333 8.77679V0.892857C8.33333 0.656057 8.187 0.428955 7.92654 0.261512C7.66607 0.0940686 7.3128 0 6.94444 0C6.57609 0 6.22282 0.0940686 5.96235 0.261512C5.70188 0.428955 5.55556 0.656057 5.55556 0.892857V8.77679C4.74284 8.59207 4.03925 8.24985 3.54174 7.7973C3.04424 7.34476 2.77733 6.80415 2.77778 6.25V0.892857ZM22.2222 24.1071V12.5H18.0556C17.6872 12.5 17.3339 12.4059 17.0735 12.2385C16.813 12.071 16.6667 11.8439 16.6667 11.6071V4.46429C16.6667 3.28036 17.5722 2.17321 18.8083 1.37679C20.0472 0.582143 21.7694 0 23.6111 0C23.9795 0 24.3327 0.0940686 24.5932 0.261512C24.8537 0.428955 25 0.656057 25 0.892857V24.1071C25 24.3439 24.8537 24.571 24.5932 24.7385C24.3327 24.9059 23.9795 25 23.6111 25C23.2428 25 22.8895 24.9059 22.629 24.7385C22.3685 24.571 22.2222 24.3439 22.2222 24.1071Z" fill="black"/>
</svg>
