<svg width="25" height="25" viewBox="0 0 25 25" fill="none" xmlns="http://www.w3.org/2000/svg">
<g clip-path="url(#clip0_140_809)">
<path d="M3.5625 4.34375C3.5625 4.13655 3.48019 3.93784 3.33368 3.79132C3.18716 3.64481 2.98845 3.5625 2.78125 3.5625C2.57405 3.5625 2.37534 3.64481 2.22882 3.79132C2.08231 3.93784 2 4.13655 2 4.34375V9.03125C1.99982 9.93176 2.31077 10.8047 2.88023 11.5023C3.44969 12.1999 4.24268 12.6793 5.125 12.8594V24.6562C5.125 24.8635 5.20731 25.0622 5.35382 25.2087C5.50034 25.3552 5.69905 25.4375 5.90625 25.4375C6.11345 25.4375 6.31216 25.3552 6.45868 25.2087C6.60519 25.0622 6.6875 24.8635 6.6875 24.6562V12.8594C7.56982 12.6793 8.36281 12.1999 8.93227 11.5023C9.50173 10.8047 9.81268 9.93176 9.8125 9.03125V4.34375C9.8125 4.13655 9.73019 3.93784 9.58368 3.79132C9.43716 3.64481 9.23845 3.5625 9.03125 3.5625C8.82405 3.5625 8.62534 3.64481 8.47882 3.79132C8.33231 3.93784 8.25 4.13655 8.25 4.34375V9.03125C8.25025 9.51613 8.10011 9.98916 7.82027 10.3851C7.54042 10.7811 7.14465 11.0806 6.6875 11.2422V4.34375C6.6875 4.13655 6.60519 3.93784 6.45868 3.79132C6.31216 3.64481 6.11345 3.5625 5.90625 3.5625C5.69905 3.5625 5.50034 3.64481 5.35382 3.79132C5.20731 3.93784 5.125 4.13655 5.125 4.34375V11.2422C4.66785 11.0806 4.27208 10.7811 3.99223 10.3851C3.71239 9.98916 3.56225 9.51613 3.5625 9.03125V4.34375ZM14.5 24.6562V14.5H12.1562C11.949 14.5 11.7503 14.4177 11.6038 14.2712C11.4573 14.1247 11.375 13.926 11.375 13.7188V7.46875C11.375 6.43281 11.8844 5.46406 12.5797 4.76719C13.2766 4.07188 14.2453 3.5625 15.2812 3.5625C15.4885 3.5625 15.6872 3.64481 15.8337 3.79132C15.9802 3.93784 16.0625 4.13655 16.0625 4.34375V24.6562C16.0625 24.8635 15.9802 25.0622 15.8337 25.2087C15.6872 25.3552 15.4885 25.4375 15.2812 25.4375C15.074 25.4375 14.8753 25.3552 14.7288 25.2087C14.5823 25.0622 14.5 24.8635 14.5 24.6562Z" fill="white"/>
</g>
<defs>
<clipPath id="clip0_140_809">
<rect width="25" height="25" fill="white"/>
</clipPath>
</defs>
</svg>
