<svg width="282" height="95" viewBox="0 0 282 95" fill="none" xmlns="http://www.w3.org/2000/svg">
<g filter="url(#filter0_d_725_95)">
<path d="M64.1484 65.6016C64.0964 66.1224 63.9141 66.526 63.6016 66.8125C63.2891 67.125 62.8854 67.2812 62.3906 67.2812C62.1302 67.2812 61.8828 67.2422 61.6484 67.1641C61.1536 67.5547 60.5677 67.8542 59.8906 68.0625C59.2135 68.2708 58.5755 68.4792 57.9766 68.6875C57.2474 68.6615 56.5312 68.5964 55.8281 68.4922C55.125 68.388 54.3958 68.362 53.6406 68.4141C53.3802 68.2318 53.1068 68.1146 52.8203 68.0625C52.5339 68.0104 52.2344 67.9714 51.9219 67.9453C51.6354 67.9453 51.349 67.9062 51.0625 67.8281C50.8021 67.75 50.5417 67.5677 50.2812 67.2812H48.3281C48.1458 67.2812 47.8724 67.1901 47.5078 67.0078C47.1693 66.8516 46.7786 66.6823 46.3359 66.5C45.9193 66.3177 45.4635 66.1484 44.9688 65.9922C44.5 65.8359 44.0573 65.7578 43.6406 65.7578H43.4062C43.1198 65.5234 42.7812 65.3411 42.3906 65.2109C42.026 65.1068 41.6484 65.0026 41.2578 64.8984C40.8672 64.8203 40.4896 64.7292 40.125 64.625C39.7604 64.5208 39.4479 64.3776 39.1875 64.1953C38.9271 64.013 38.6276 63.8307 38.2891 63.6484C37.9505 63.4401 37.599 63.349 37.2344 63.375C36.7396 63.0885 36.2188 62.8411 35.6719 62.6328C35.151 62.4245 34.6172 62.2292 34.0703 62.0469L32.4688 61.4609C31.9479 61.2526 31.4271 61.0052 30.9062 60.7188C30.8281 60.7448 30.737 60.7448 30.6328 60.7188C30.5286 60.6927 30.4375 60.6797 30.3594 60.6797C30.2031 60.6797 30.112 60.7318 30.0859 60.8359C29.9036 60.6536 29.6953 60.4974 29.4609 60.3672C29.2526 60.237 29.0443 60.0807 28.8359 59.8984C28.7318 59.9245 28.6276 59.9505 28.5234 59.9766C28.4453 59.9766 28.3411 59.9766 28.2109 59.9766C27.9766 59.9766 27.7422 59.9505 27.5078 59.8984C27.2995 59.8464 27.0911 59.7812 26.8828 59.7031C26.6484 60.224 26.4922 60.8099 26.4141 61.4609C26.3359 62.112 26.2708 62.7891 26.2188 63.4922C26.1927 64.1693 26.1536 64.8464 26.1016 65.5234C26.0495 66.2266 25.9323 66.8646 25.75 67.4375C25.8021 67.6458 25.8281 67.8542 25.8281 68.0625V68.7266C25.8281 69.1693 25.8932 69.5208 26.0234 69.7812C25.9714 70.0156 25.9193 70.237 25.8672 70.4453C25.8411 70.6536 25.8021 70.862 25.75 71.0703C25.776 71.3568 25.7891 71.6172 25.7891 71.8516C25.8151 72.112 25.8281 72.3854 25.8281 72.6719V73.3359C25.8281 73.5703 25.8021 73.8047 25.75 74.0391C25.4896 74.1953 25.2292 74.3385 24.9688 74.4688C24.7083 74.625 24.4479 74.8073 24.1875 75.0156C24.0052 74.6771 23.6927 74.4818 23.25 74.4297C23.1458 74.5599 23.0677 74.7292 23.0156 74.9375C22.9896 75.1719 22.8724 75.2891 22.6641 75.2891C22.2995 75.0026 22 74.7682 21.7656 74.5859C21.5312 74.4036 21.2708 74.1302 20.9844 73.7656C20.9583 73.7135 20.9453 73.6484 20.9453 73.5703C20.9453 73.4401 20.9714 73.3229 21.0234 73.2188C21.0755 73.1146 21.1016 73.0104 21.1016 72.9062C21.1016 72.5938 21.0625 72.3203 20.9844 72.0859C20.9323 71.7474 20.8932 71.4089 20.8672 71.0703C20.8411 70.7578 20.8281 70.4453 20.8281 70.1328C20.8281 69.6901 20.8542 69.2604 20.9062 68.8438C20.9844 68.4271 21.1146 67.9974 21.2969 67.5547C21.5833 66.7995 21.7786 66.0052 21.8828 65.1719C22.013 64.3385 22.1042 63.5052 22.1562 62.6719C22.2083 61.8125 22.2344 60.9531 22.2344 60.0938C22.2604 59.2344 22.3125 58.4141 22.3906 57.6328C22.2083 57.2161 21.987 56.8906 21.7266 56.6562C21.4922 56.3958 21.375 55.9922 21.375 55.4453C21.375 54.9505 21.5312 54.5729 21.8438 54.3125C22.1562 54.026 22.4297 53.6875 22.6641 53.2969C22.612 53.1406 22.651 53.0365 22.7812 52.9844L23.25 48.8828C23.276 48.5964 23.3151 48.2839 23.3672 47.9453C23.4453 47.6068 23.4974 47.2943 23.5234 47.0078C23.5755 46.4089 23.6016 45.8229 23.6016 45.25C23.6016 44.6771 23.6276 44.1042 23.6797 43.5312C23.8099 42.2552 23.9271 40.9922 24.0312 39.7422C24.1615 38.4922 24.2266 37.2422 24.2266 35.9922C24.2266 35.3932 24.2005 34.7943 24.1484 34.1953C24.1224 33.5964 24.0443 32.9974 23.9141 32.3984C23.4714 32.5286 22.9766 32.6719 22.4297 32.8281C21.9089 32.9583 21.4661 33.1927 21.1016 33.5312H20.7891C20.112 33.5312 19.474 33.6615 18.875 33.9219C18.3021 34.1823 17.7161 34.4297 17.1172 34.6641C16.8568 34.7943 16.5964 34.8854 16.3359 34.9375C16.0755 34.9635 15.8021 35.0156 15.5156 35.0938C15.3854 35.1198 15.2422 35.1979 15.0859 35.3281C14.9297 35.4583 14.7865 35.5495 14.6562 35.6016L13.9922 35.7578C13.8099 35.8099 13.7318 35.9271 13.7578 36.1094C13.7839 36.2917 13.7188 36.4089 13.5625 36.4609C13.4323 36.5911 13.25 36.6562 13.0156 36.6562C12.7812 36.6302 12.599 36.6172 12.4688 36.6172H12.3125C11.6615 37.0859 11.0365 37.4896 10.4375 37.8281C9.8125 38.1406 9.08333 38.349 8.25 38.4531L7.39062 39C7.10417 39.1823 6.77865 39.2734 6.41406 39.2734C6.1276 39.2734 5.89323 39.2214 5.71094 39.1172C5.5026 38.8047 5.34635 38.4531 5.24219 38.0625C5.11198 37.6719 4.90365 37.3333 4.61719 37.0469C4.7474 36.9167 4.83854 36.7474 4.89062 36.5391C4.91667 36.3047 4.95573 36.0964 5.00781 35.9141C5.78906 35.5755 6.58333 35.25 7.39062 34.9375C8.17188 34.625 8.92708 34.2474 9.65625 33.8047C9.73438 33.8307 9.85156 33.8438 10.0078 33.8438C10.2682 33.8438 10.5026 33.8047 10.7109 33.7266C10.9193 33.6484 11.1276 33.5573 11.3359 33.4531C11.5443 33.349 11.7526 33.2578 11.9609 33.1797C12.1693 33.1016 12.4167 33.0755 12.7031 33.1016C13.5885 32.6068 14.526 32.2031 15.5156 31.8906C16.5052 31.5781 17.4427 31.1484 18.3281 30.6016C18.4583 30.6016 18.5625 30.6276 18.6406 30.6797C18.7448 30.7318 18.849 30.7578 18.9531 30.7578C19.0573 30.7578 19.1224 30.7448 19.1484 30.7188C19.3047 30.5104 19.513 30.3672 19.7734 30.2891C20.0339 30.1849 20.2943 30.1068 20.5547 30.0547C20.8411 29.9766 21.1016 29.8854 21.3359 29.7812C21.5964 29.651 21.7656 29.4557 21.8438 29.1953C21.974 29.2995 22.1693 29.3516 22.4297 29.3516C22.8724 29.3516 23.276 29.2604 23.6406 29.0781C24.0312 28.8958 24.4479 28.8047 24.8906 28.8047C24.9948 28.8047 25.0859 28.8307 25.1641 28.8828C25.2682 28.9089 25.3724 28.9219 25.4766 28.9219C25.6849 28.9219 25.7891 28.8568 25.7891 28.7266C25.8151 28.5964 25.8932 28.4792 26.0234 28.375C27.612 28.0885 29.1875 27.8281 30.75 27.5938C32.3385 27.3594 33.9401 27.2422 35.5547 27.2422C35.7891 27.0859 36.0495 27.0078 36.3359 27.0078C36.6224 27.0078 36.8828 27.0859 37.1172 27.2422C37.5599 27.1901 38.0026 27.151 38.4453 27.125C38.888 27.099 39.3307 27.0859 39.7734 27.0859C40.7891 27.0859 41.8307 27.151 42.8984 27.2812C43.9661 27.4115 45.0208 27.6198 46.0625 27.9062C47.1302 28.1667 48.1458 28.5312 49.1094 29C50.0729 29.4427 50.9714 29.9766 51.8047 30.6016C51.8828 30.8359 51.987 31.0703 52.1172 31.3047C52.2474 31.5391 52.4167 31.7214 52.625 31.8516C52.625 31.9036 52.612 31.9427 52.5859 31.9688C52.5859 31.9948 52.5859 32.0339 52.5859 32.0859C52.5859 32.3724 52.6641 32.6458 52.8203 32.9062C53.0026 33.1667 53.0938 33.4792 53.0938 33.8438C53.0938 34.2083 53.0286 34.5729 52.8984 34.9375C52.7943 35.3021 52.7552 35.6667 52.7812 36.0312C52.4948 36.4479 52.2474 36.8255 52.0391 37.1641C51.8568 37.5026 51.7396 37.9323 51.6875 38.4531C51.2188 38.9219 50.8021 39.4427 50.4375 40.0156C50.0729 40.5625 49.6953 41.1094 49.3047 41.6562C48.9401 42.1771 48.5234 42.6589 48.0547 43.1016C47.5859 43.5443 47.026 43.8958 46.375 44.1562C46.349 44.4167 46.2448 44.7031 46.0625 45.0156H45.2422C45.1641 45.224 45.0339 45.3802 44.8516 45.4844L44.3047 45.7969C44.1224 45.901 43.9661 46.0312 43.8359 46.1875C43.7318 46.3438 43.6797 46.5651 43.6797 46.8516C43.6276 46.8255 43.5625 46.8125 43.4844 46.8125C43.224 46.8125 42.9115 46.9427 42.5469 47.2031C42.2083 47.4635 41.9349 47.6719 41.7266 47.8281C41.2839 48.1406 40.8281 48.4271 40.3594 48.6875C39.9167 48.9479 39.526 49.3125 39.1875 49.7812C38.1458 50.224 37.1562 50.7448 36.2188 51.3438C35.2812 51.9167 34.2656 52.3724 33.1719 52.7109C32.7552 53.1536 32.2604 53.5052 31.6875 53.7656C31.1406 54 30.6068 54.2604 30.0859 54.5469V54.6641C30.0859 54.8724 30.1641 55.0807 30.3203 55.2891C30.4766 55.4714 30.6589 55.6406 30.8672 55.7969C31.0755 55.9271 31.2969 56.0182 31.5312 56.0703C31.7917 56.1224 32.013 56.1224 32.1953 56.0703C32.7161 56.5391 33.3151 56.9167 33.9922 57.2031C34.6693 57.4896 35.3724 57.75 36.1016 57.9844C36.8307 58.2188 37.5469 58.4661 38.25 58.7266C38.9531 58.987 39.6042 59.3125 40.2031 59.7031H41.1406C41.7396 60.224 42.4427 60.6146 43.25 60.875C44.0833 61.1354 44.8776 61.3698 45.6328 61.5781C45.9453 61.8646 46.3359 62.0859 46.8047 62.2422C47.2995 62.3724 47.7682 62.4375 48.2109 62.4375H48.4453C48.5495 62.4375 48.6406 62.4245 48.7188 62.3984V62.4766C48.7188 62.6068 48.7578 62.6979 48.8359 62.75C48.9141 62.776 48.9922 62.8021 49.0703 62.8281C49.1745 62.8281 49.2656 62.8542 49.3438 62.9062C49.4479 62.9323 49.526 62.9844 49.5781 63.0625H49.9688C50.5156 63.0625 51.0365 63.1797 51.5312 63.4141C52.026 63.6224 52.5469 63.7266 53.0938 63.7266C53.3281 63.7266 53.5104 63.7005 53.6406 63.6484C53.7969 63.7005 53.9141 63.8047 53.9922 63.9609C54.0703 64.1172 54.1745 64.2474 54.3047 64.3516C54.487 64.3255 54.6562 64.2995 54.8125 64.2734C54.9688 64.2734 55.125 64.2734 55.2812 64.2734C55.8542 64.2734 56.388 64.3385 56.8828 64.4688C57.3776 64.599 57.8854 64.7943 58.4062 65.0547C59.2396 64.6901 60.0599 64.3906 60.8672 64.1562C61.6745 63.9219 62.5339 63.8047 63.4453 63.8047V63.8828C63.4453 64.1953 63.5234 64.4818 63.6797 64.7422C63.862 65.0286 64.0182 65.3151 64.1484 65.6016ZM49.1875 34.4297C49.1875 34.1172 49.1224 33.8698 48.9922 33.6875C48.888 33.5052 48.7448 33.349 48.5625 33.2188C48.3802 33.0625 48.1849 32.9193 47.9766 32.7891C47.7943 32.6589 47.625 32.4896 47.4688 32.2812C46.7917 32.0729 46.1276 31.8385 45.4766 31.5781C44.8255 31.3177 44.1615 31.0964 43.4844 30.9141C43.1458 30.8359 42.8073 30.7708 42.4688 30.7188C42.1302 30.6406 41.7917 30.6016 41.4531 30.6016H40.5938C40.4375 30.5755 40.2682 30.5495 40.0859 30.5234C39.9297 30.4714 39.7734 30.4323 39.6172 30.4062C39.2526 30.3542 38.888 30.3151 38.5234 30.2891C38.1849 30.263 37.8333 30.25 37.4688 30.25C36.7917 30.25 36.1146 30.276 35.4375 30.3281L33.4062 30.4844C33.1198 30.5104 32.8203 30.5234 32.5078 30.5234C32.1953 30.5234 31.9089 30.5495 31.6484 30.6016C31.5182 30.6276 31.3359 30.6927 31.1016 30.7969C30.8672 30.875 30.6198 30.9661 30.3594 31.0703C30.099 31.1484 29.8385 31.2396 29.5781 31.3438C29.3438 31.4479 29.1354 31.526 28.9531 31.5781C28.9792 31.7604 28.9922 31.9427 28.9922 32.125V32.6328C28.9922 33.0234 28.9792 33.4141 28.9531 33.8047C28.9271 34.1953 28.875 34.5859 28.7969 34.9766C28.7708 35.1328 28.7318 35.2891 28.6797 35.4453C28.6276 35.6016 28.5885 35.7578 28.5625 35.9141C28.5104 36.1484 28.4844 36.4089 28.4844 36.6953V37.4375C28.4323 38.0365 28.3932 38.6224 28.3672 39.1953C28.3411 39.7682 28.3021 40.3542 28.25 40.9531C28.0938 42.6719 27.9245 44.3776 27.7422 46.0703C27.5859 47.763 27.4818 49.4688 27.4297 51.1875C28.2891 51.0052 29.1094 50.7318 29.8906 50.3672C30.6719 50.0026 31.4401 49.612 32.1953 49.1953C32.9505 48.7526 33.7057 48.3229 34.4609 47.9062C35.2161 47.4896 36.0104 47.138 36.8438 46.8516C37.0521 46.5651 37.2995 46.3307 37.5859 46.1484C37.8984 45.9661 38.1589 45.7318 38.3672 45.4453C38.6276 45.4453 38.8229 45.3932 38.9531 45.2891C39.0833 45.1589 39.2526 45.0677 39.4609 45.0156C40.7109 43.9219 41.987 42.8932 43.2891 41.9297C44.5911 40.9661 45.8411 39.9375 47.0391 38.8438C47.1432 38.4792 47.3125 38.1276 47.5469 37.7891C47.8073 37.4245 48.0547 37.0599 48.2891 36.6953C48.5234 36.3307 48.7318 35.9661 48.9141 35.6016C49.0964 35.237 49.1875 34.8464 49.1875 34.4297ZM76.6094 41.3828C76.4531 41.6172 76.362 41.8776 76.3359 42.1641C76.3099 42.4505 76.2969 42.7109 76.2969 42.9453C76.2969 43.2578 76.2969 43.5703 76.2969 43.8828C76.3229 44.1693 76.3359 44.4557 76.3359 44.7422V45.3281C76.2839 45.5104 76.2057 45.6927 76.1016 45.875C75.9974 46.0573 75.9193 46.2396 75.8672 46.4219C75.5026 47.3854 75.3203 48.349 75.3203 49.3125V49.3906C75.1901 49.7031 75.0599 49.9896 74.9297 50.25C74.8255 50.5104 74.7214 50.7708 74.6172 51.0312C74.513 51.2656 74.4349 51.526 74.3828 51.8125C74.3307 52.0729 74.3177 52.3854 74.3438 52.75C73.9792 53.6615 73.4974 54.4948 72.8984 55.25C72.2995 55.9792 71.7135 56.7344 71.1406 57.5156C70.5938 57.724 70.0859 57.9974 69.6172 58.3359C69.1745 58.6745 68.7448 59.0521 68.3281 59.4688C67.5208 59.7292 66.7266 60.0286 65.9453 60.3672C65.1641 60.7057 64.4609 61.1615 63.8359 61.7344C63.3411 61.7865 62.8464 61.8646 62.3516 61.9688C61.8568 62.0729 61.375 62.2292 60.9062 62.4375H60.4375C60.2031 62.4375 60.0339 62.3854 59.9297 62.2812C59.5911 62.4635 59.2396 62.5938 58.875 62.6719C58.5104 62.724 58.1458 62.75 57.7812 62.75C57.3125 62.75 56.8438 62.724 56.375 62.6719C55.9323 62.5938 55.4766 62.5156 55.0078 62.4375C54.7474 62.0729 54.3828 61.7995 53.9141 61.6172C53.4453 61.4089 53.0286 61.2135 52.6641 61.0312C51.9089 59.9896 51.362 58.987 51.0234 58.0234C50.6849 57.0339 50.3333 55.9271 49.9688 54.7031C50.0208 54.3385 50.112 53.987 50.2422 53.6484C50.3724 53.2839 50.4245 52.8932 50.3984 52.4766C50.8672 51.1224 51.4792 49.8984 52.2344 48.8047C53.0156 47.6849 53.901 46.6172 54.8906 45.6016C54.8906 45.4453 54.9167 45.3151 54.9688 45.2109C55.0469 45.1068 55.0599 44.9505 55.0078 44.7422C55.0339 44.7682 55.0859 44.7812 55.1641 44.7812C55.3724 44.7812 55.5026 44.7292 55.5547 44.625C55.6068 44.4948 55.6198 44.3516 55.5938 44.1953C56.5312 43.5964 57.3776 42.9062 58.1328 42.125C58.9141 41.3438 59.7995 40.6927 60.7891 40.1719C60.8672 39.9375 60.9974 39.7422 61.1797 39.5859C61.362 39.4297 61.5052 39.2474 61.6094 39.0391C62.4427 38.8047 63.1979 38.4531 63.875 37.9844C64.5521 37.5156 65.2682 37.099 66.0234 36.7344C66.4401 36.5 66.8307 36.3438 67.1953 36.2656C67.5859 36.1615 68.0026 36.0573 68.4453 35.9531C68.6016 35.901 68.7448 35.862 68.875 35.8359C69.0052 35.8099 69.1484 35.7969 69.3047 35.7969C69.7734 35.7969 70.2292 35.888 70.6719 36.0703C71.1146 36.2266 71.5703 36.3047 72.0391 36.3047C72.1693 36.3047 72.2734 36.3047 72.3516 36.3047C72.4557 36.2786 72.5599 36.2526 72.6641 36.2266C73.1068 36.7734 73.6667 37.1901 74.3438 37.4766C74.5 37.8672 74.6823 38.2057 74.8906 38.4922C75.125 38.7786 75.3594 39.0651 75.5938 39.3516C75.8281 39.612 76.0365 39.9115 76.2188 40.25C76.4271 40.5625 76.5573 40.9401 76.6094 41.3828ZM72.7031 43.4141C72.7031 43.2839 72.6901 43.1667 72.6641 43.0625C72.4036 42.9844 72.1562 42.8802 71.9219 42.75C71.6875 42.6198 71.4271 42.5547 71.1406 42.5547C70.9583 42.5547 70.776 42.5938 70.5938 42.6719C70.5677 42.4896 70.4896 42.3594 70.3594 42.2812C70.2552 42.2031 70.125 42.138 69.9688 42.0859C69.8385 42.0078 69.6953 41.9557 69.5391 41.9297C69.4089 41.8776 69.2917 41.7995 69.1875 41.6953C69.1094 41.487 69.0182 41.2786 68.9141 41.0703C68.8359 40.8359 68.6797 40.6667 68.4453 40.5625C68.2109 40.7969 67.9375 40.9922 67.625 41.1484C67.3125 41.2786 66.987 41.4089 66.6484 41.5391C66.3359 41.6693 66.0234 41.8255 65.7109 42.0078C65.4245 42.1901 65.1771 42.4115 64.9688 42.6719H64.2656C64.1094 42.9583 63.888 43.1797 63.6016 43.3359C63.3151 43.4661 63.0677 43.6615 62.8594 43.9219C62.4427 44.1302 62.0521 44.3906 61.6875 44.7031C61.349 44.9896 61.0104 45.3021 60.6719 45.6406C60.3333 45.9531 59.9948 46.2786 59.6562 46.6172C59.3438 46.9557 59.0052 47.2682 58.6406 47.5547C58.3021 48.2839 57.9245 48.9219 57.5078 49.4688C57.1172 49.9896 56.7396 50.5234 56.375 51.0703C56.0365 51.6172 55.737 52.2161 55.4766 52.8672C55.2422 53.4922 55.125 54.2734 55.125 55.2109V55.6016C55.125 55.7318 55.138 55.862 55.1641 55.9922C55.5026 56.3568 55.776 56.7474 55.9844 57.1641C56.2188 57.5807 56.5964 57.8802 57.1172 58.0625C57.638 58.2708 58.1849 58.362 58.7578 58.3359C59.3568 58.3099 59.9297 58.375 60.4766 58.5312C61.7266 58.2969 62.9245 57.9193 64.0703 57.3984C65.2422 56.8516 66.349 56.2005 67.3906 55.4453C67.5469 55.3151 67.7292 55.1849 67.9375 55.0547C68.1458 54.8984 68.3151 54.7422 68.4453 54.5859C68.5755 54.4557 68.6797 54.3125 68.7578 54.1562C68.862 54 68.9661 53.8568 69.0703 53.7266C69.2786 53.388 69.513 53.0495 69.7734 52.7109C70.0339 52.3724 70.3073 52.0599 70.5938 51.7734C70.724 51.2005 70.8932 50.6536 71.1016 50.1328C71.3099 49.5859 71.5182 49.0521 71.7266 48.5312C71.9349 48.0104 72.1042 47.4766 72.2344 46.9297C72.3906 46.3828 72.4688 45.8099 72.4688 45.2109C72.4688 45.0807 72.4557 44.9375 72.4297 44.7812C72.4297 44.625 72.4167 44.4818 72.3906 44.3516C72.599 44.0651 72.7031 43.7526 72.7031 43.4141ZM108.602 56.9688C108.602 57.2292 108.523 57.4505 108.367 57.6328C108.237 57.7891 108.068 57.9323 107.859 58.0625C107.677 58.1927 107.482 58.3099 107.273 58.4141C107.091 58.5182 106.922 58.6484 106.766 58.8047C106.661 58.9089 106.583 59.0391 106.531 59.1953C106.505 59.3255 106.44 59.4167 106.336 59.4688C106.18 59.599 106.01 59.6771 105.828 59.7031C105.646 59.7292 105.451 59.7682 105.242 59.8203C105.06 59.8464 104.878 59.8984 104.695 59.9766C104.513 60.0286 104.357 60.1458 104.227 60.3281C103.003 60.4583 101.792 60.6276 100.594 60.8359C99.4219 61.0443 98.2109 61.1484 96.9609 61.1484C96.7266 61.1484 96.4661 61.1745 96.1797 61.2266C95.9193 61.2526 95.6719 61.2786 95.4375 61.3047C94.8906 61.3568 94.3438 61.3958 93.7969 61.4219C93.276 61.4479 92.7422 61.4609 92.1953 61.4609C91.4401 61.4609 90.6849 61.4349 89.9297 61.3828C89.1745 61.3047 88.4323 61.1875 87.7031 61.0312C87.5208 60.901 87.3125 60.7969 87.0781 60.7188C86.8438 60.6406 86.5964 60.5625 86.3359 60.4844C86.1016 60.4062 85.8802 60.3151 85.6719 60.2109C85.4635 60.1068 85.3073 59.9505 85.2031 59.7422C84.8125 59.7161 84.4609 59.638 84.1484 59.5078C83.862 59.3776 83.5885 59.2344 83.3281 59.0781C83.0938 58.8958 82.8464 58.7135 82.5859 58.5312C82.3255 58.349 82.026 58.1927 81.6875 58.0625C81.4271 57.6979 81.1536 57.3464 80.8672 57.0078C80.6068 56.6432 80.2812 56.3438 79.8906 56.1094C79.8125 55.6146 79.6823 55.1198 79.5 54.625C79.3438 54.1302 79.1745 53.6484 78.9922 53.1797C78.8359 52.6849 78.7057 52.1901 78.6016 51.6953C78.4714 51.2005 78.4062 50.6927 78.4062 50.1719C78.4062 49.8073 78.4583 49.3646 78.5625 48.8438C78.6667 48.3229 78.7969 47.8021 78.9531 47.2812C79.1354 46.7344 79.3438 46.2266 79.5781 45.7578C79.8125 45.2891 80.0469 44.9115 80.2812 44.625C80.3594 44.5469 80.4505 44.4818 80.5547 44.4297C80.6589 44.3776 80.75 44.2995 80.8281 44.1953C81.0625 43.9349 81.3099 43.7266 81.5703 43.5703C81.8307 43.388 82.1042 43.1797 82.3906 42.9453C82.4948 42.8411 82.5729 42.724 82.625 42.5938C82.7031 42.4635 82.8073 42.3464 82.9375 42.2422C83.0156 42.1901 83.1198 42.1771 83.25 42.2031C83.4062 42.2292 83.5365 42.2031 83.6406 42.125C83.7448 42.0469 83.7969 41.9557 83.7969 41.8516C83.7969 41.7474 83.8359 41.6562 83.9141 41.5781C83.9401 41.5521 84.0182 41.5521 84.1484 41.5781C84.2786 41.5781 84.3568 41.5781 84.3828 41.5781C84.5651 41.5781 84.7734 41.4609 85.0078 41.2266C85.2422 40.9661 85.4375 40.7969 85.5938 40.7188C85.776 40.6146 85.9583 40.5495 86.1406 40.5234C86.3229 40.4714 86.5182 40.3932 86.7266 40.2891C87.013 40.1328 87.2865 40.0156 87.5469 39.9375C87.8333 39.8333 88.1198 39.7161 88.4062 39.5859C88.5625 39.5339 88.7057 39.4427 88.8359 39.3125C88.9661 39.1823 89.0964 39.0911 89.2266 39.0391C89.4609 38.9609 89.7083 38.9089 89.9688 38.8828C90.2552 38.8307 90.5156 38.7917 90.75 38.7656C91.0104 38.7135 91.2578 38.6615 91.4922 38.6094C91.7526 38.5312 91.987 38.401 92.1953 38.2188H92.5078C92.9766 38.2188 93.4323 38.1536 93.875 38.0234C94.3177 37.8932 94.7734 37.8281 95.2422 37.8281C95.3724 37.8281 95.5677 37.8542 95.8281 37.9062C96.0365 37.776 96.2708 37.7109 96.5312 37.7109C96.974 37.7109 97.4167 37.8281 97.8594 38.0625C98.3021 38.2708 98.7578 38.375 99.2266 38.375H99.4609C99.5651 38.375 99.6693 38.362 99.7734 38.3359C100.06 38.6224 100.398 38.7786 100.789 38.8047C101.206 38.8307 101.557 38.9479 101.844 39.1562C102.026 39.3125 102.169 39.4948 102.273 39.7031C102.404 39.9115 102.508 40.1328 102.586 40.3672L102.82 41.0703C102.898 41.3047 103.003 41.513 103.133 41.6953C103.003 42.6328 102.612 43.388 101.961 43.9609C101.336 44.5078 100.542 44.7812 99.5781 44.7812C99.2135 44.7812 98.901 44.7422 98.6406 44.6641C98.4062 44.5599 98.1849 44.4557 97.9766 44.3516C97.7943 44.2474 97.599 44.1432 97.3906 44.0391C97.1823 43.9349 96.9479 43.8568 96.6875 43.8047C96.974 43.2839 97.1562 42.724 97.2344 42.125C96.9479 41.9948 96.6615 41.9036 96.375 41.8516C96.0885 41.7995 95.8151 41.7083 95.5547 41.5781C94.8516 41.7604 94.1615 41.8906 93.4844 41.9688C92.8333 42.0208 92.2214 42.2943 91.6484 42.7891C91.5182 42.763 91.375 42.737 91.2188 42.7109C91.0885 42.6849 90.9583 42.6719 90.8281 42.6719C90.6719 42.6719 90.3594 42.7891 89.8906 43.0234C89.4219 43.2318 88.9141 43.4792 88.3672 43.7656C87.8464 44.0521 87.3385 44.3385 86.8438 44.625C86.375 44.9115 86.0495 45.1068 85.8672 45.2109C85.6589 45.3411 85.4766 45.4974 85.3203 45.6797C85.1641 45.862 85.0078 46.0573 84.8516 46.2656C84.6953 46.4479 84.5391 46.6302 84.3828 46.8125C84.2266 46.9688 84.0312 47.0859 83.7969 47.1641C83.7448 47.4505 83.6536 47.6979 83.5234 47.9062C83.3932 48.1146 83.25 48.3359 83.0938 48.5703C83.0677 49.0391 83.0156 49.5078 82.9375 49.9766C82.8854 50.4453 82.8594 50.9141 82.8594 51.3828V51.8906C82.8594 52.0469 82.8854 52.1901 82.9375 52.3203C83.1979 52.6589 83.4062 53.0365 83.5625 53.4531C83.7448 53.8698 84.0443 54.1562 84.4609 54.3125C84.487 54.4167 84.474 54.4818 84.4219 54.5078C84.3958 54.5339 84.3698 54.599 84.3438 54.7031C84.5 54.9896 84.6953 55.224 84.9297 55.4062C85.1901 55.5625 85.4505 55.7318 85.7109 55.9141C85.9714 56.0703 86.2188 56.2396 86.4531 56.4219C86.6875 56.6042 86.8698 56.8385 87 57.125C87.3906 57.125 87.7552 57.1901 88.0938 57.3203C88.4583 57.4505 88.7969 57.5938 89.1094 57.75C89.4479 57.9062 89.7604 58.0495 90.0469 58.1797C90.3594 58.3099 90.6719 58.375 90.9844 58.375C91.2708 58.375 91.5312 58.3359 91.7656 58.2578C92.4427 58.4661 93.1198 58.6224 93.7969 58.7266C94.5 58.8047 95.2031 58.8438 95.9062 58.8438C96.7656 58.8438 97.625 58.7917 98.4844 58.6875C99.3438 58.5833 100.203 58.4922 101.062 58.4141C101.375 58.362 101.674 58.3359 101.961 58.3359C102.247 58.3359 102.534 58.3099 102.82 58.2578C103.185 58.2057 103.523 58.0365 103.836 57.75C104.174 57.4635 104.5 57.2552 104.812 57.125C105.099 57.3073 105.438 57.3984 105.828 57.3984C106.271 57.3984 106.701 57.3333 107.117 57.2031C107.534 57.0469 107.964 56.9688 108.406 56.9688H108.602ZM139.188 62.0078C139.188 62.2161 139.096 62.3854 138.914 62.5156C138.732 62.6458 138.523 62.776 138.289 62.9062L137.586 63.2578C137.352 63.362 137.195 63.5052 137.117 63.6875C136.831 63.6094 136.544 63.5573 136.258 63.5312C135.997 63.5052 135.737 63.4922 135.477 63.4922C135.138 63.4922 134.786 63.5312 134.422 63.6094C134.057 63.6615 133.771 63.8307 133.562 64.1172C133.432 64.0651 133.315 64.0391 133.211 64.0391H132.898C132.508 64.0391 132.104 64.0651 131.688 64.1172C131.297 64.1953 130.906 64.2344 130.516 64.2344C130.307 64.2344 130.099 64.2214 129.891 64.1953C129.708 64.1693 129.539 64.0911 129.383 63.9609C129.148 64.0391 128.901 64.0781 128.641 64.0781C128.302 64.0781 127.977 64.026 127.664 63.9219C127.352 63.8177 127.039 63.7005 126.727 63.5703C126.44 63.4141 126.141 63.2708 125.828 63.1406C125.516 63.0104 125.203 62.9062 124.891 62.8281L124.617 62.2812C124.201 62.2031 123.81 62.0859 123.445 61.9297C123.107 61.7474 122.768 61.5521 122.43 61.3438C122.091 61.1354 121.753 60.9401 121.414 60.7578C121.102 60.5495 120.776 60.4062 120.438 60.3281C120.307 60.224 120.19 60.1328 120.086 60.0547C119.982 59.9505 119.904 59.8073 119.852 59.625C119.513 59.5469 119.201 59.4427 118.914 59.3125L118.094 58.8828C117.833 58.7266 117.534 58.5964 117.195 58.4922C116.883 58.362 116.505 58.2839 116.062 58.2578C115.906 58.0234 115.685 57.8021 115.398 57.5938C115.112 57.3854 114.826 57.2812 114.539 57.2812C114.357 57.2812 114.214 57.3203 114.109 57.3984V57.5938C114.109 57.9062 114.201 58.2188 114.383 58.5312C114.565 58.8438 114.799 59.0651 115.086 59.1953C115.06 59.2474 115.047 59.3255 115.047 59.4297C115.047 59.5859 115.073 59.7422 115.125 59.8984C115.203 60.0547 115.333 60.1589 115.516 60.2109C115.411 60.4974 115.281 60.7969 115.125 61.1094C114.969 61.3958 114.773 61.6693 114.539 61.9297C114.305 62.1901 114.044 62.4115 113.758 62.5938C113.497 62.75 113.198 62.8281 112.859 62.8281C112.755 62.8802 112.677 62.9583 112.625 63.0625C112.599 63.1667 112.573 63.2839 112.547 63.4141C112.547 63.5182 112.521 63.6224 112.469 63.7266C112.443 63.8307 112.391 63.9089 112.312 63.9609C112.208 63.987 112.065 64 111.883 64C111.622 64 111.401 63.9609 111.219 63.8828C111.036 63.8047 110.841 63.7005 110.633 63.5703V63.4141C110.633 63.1016 110.568 62.8542 110.438 62.6719C110.333 62.4896 110.203 62.3203 110.047 62.1641C109.917 61.9818 109.786 61.7995 109.656 61.6172C109.552 61.4349 109.5 61.1875 109.5 60.875C109.422 60.9271 109.331 60.9661 109.227 60.9922C109.148 61.0182 109.096 61.0703 109.07 61.1484C109.018 60.888 108.992 60.6667 108.992 60.4844C108.992 59.9635 109.07 59.4688 109.227 59C109.409 58.5312 109.5 58.0365 109.5 57.5156V56.9297C109.5 56.3307 109.487 55.7448 109.461 55.1719C109.435 54.599 109.422 54.026 109.422 53.4531C109.422 52.9583 109.435 52.4766 109.461 52.0078C109.487 51.513 109.539 51.0182 109.617 50.5234C109.904 48.8047 110.138 47.099 110.32 45.4062C110.529 43.6875 110.854 41.9818 111.297 40.2891C111.271 40.1589 111.232 40.0286 111.18 39.8984C111.154 39.7682 111.141 39.638 111.141 39.5078C111.141 39.4036 111.154 39.3385 111.18 39.3125C111.284 38.7917 111.518 38.362 111.883 38.0234C112.247 37.6589 112.716 37.4766 113.289 37.4766H113.406C113.719 37.6068 113.953 37.8021 114.109 38.0625C114.292 38.2969 114.565 38.388 114.93 38.3359C114.93 38.388 114.917 38.4401 114.891 38.4922C114.891 38.5443 114.891 38.5964 114.891 38.6484C114.891 38.9349 114.969 39.1432 115.125 39.2734C115.281 39.4036 115.464 39.5469 115.672 39.7031C115.542 39.9635 115.451 40.263 115.398 40.6016C115.372 40.9401 115.346 41.2786 115.32 41.6172C115.294 41.9557 115.242 42.2812 115.164 42.5938C115.112 42.9062 114.995 43.1667 114.812 43.375C114.917 43.6354 114.982 43.8958 115.008 44.1562C115.034 44.4167 115.047 44.6901 115.047 44.9766C115.047 45.263 115.034 45.5625 115.008 45.875C114.982 46.1615 114.969 46.4609 114.969 46.7734C114.969 47.0599 115.008 47.3203 115.086 47.5547C115.659 47.5547 115.984 47.2812 116.062 46.7344C116.74 46.5521 117.339 46.3047 117.859 45.9922C118.406 45.6536 118.927 45.3021 119.422 44.9375C119.917 44.5729 120.398 44.1953 120.867 43.8047C121.362 43.4141 121.909 43.0755 122.508 42.7891V42.7109C122.508 42.5807 122.547 42.5026 122.625 42.4766C122.703 42.4245 122.716 42.3073 122.664 42.125C123.055 41.9948 123.38 41.8255 123.641 41.6172C123.927 41.3828 124.188 41.1354 124.422 40.875L125.164 40.0547C125.424 39.7682 125.711 39.5208 126.023 39.3125C126.232 38.8698 126.414 38.401 126.57 37.9062C126.753 37.4115 126.987 36.9557 127.273 36.5391C127.768 36.5391 128.302 36.5781 128.875 36.6562C129.474 36.7344 129.982 36.9167 130.398 37.2031C130.346 37.4115 130.438 37.5547 130.672 37.6328C130.385 38.7266 129.956 39.7161 129.383 40.6016C128.81 41.4609 128.068 42.1901 127.156 42.7891C127.026 43.0755 126.857 43.3229 126.648 43.5312C126.44 43.7396 126.232 43.9479 126.023 44.1562C125.815 44.3385 125.607 44.5339 125.398 44.7422C125.19 44.9505 125.021 45.1979 124.891 45.4844C124.578 45.5365 124.305 45.6276 124.07 45.7578C123.862 45.888 123.654 46.0443 123.445 46.2266C123.263 46.3828 123.055 46.5391 122.82 46.6953C122.612 46.8255 122.378 46.9297 122.117 47.0078C121.909 47.2682 121.661 47.4896 121.375 47.6719C121.115 47.8542 120.841 48.0365 120.555 48.2188C120.294 48.375 120.047 48.5573 119.812 48.7656C119.578 48.9479 119.409 49.1953 119.305 49.5078H118.289C118.003 50.0026 117.625 50.4193 117.156 50.7578C116.714 51.0703 116.258 51.3698 115.789 51.6562C115.867 51.9688 116.01 52.2292 116.219 52.4375C116.427 52.6198 116.648 52.7891 116.883 52.9453C117.143 53.1016 117.391 53.2708 117.625 53.4531C117.885 53.6094 118.107 53.8047 118.289 54.0391C119.383 54.4557 120.438 54.9375 121.453 55.4844C122.469 56.0052 123.432 56.6432 124.344 57.3984C124.396 57.3724 124.461 57.3594 124.539 57.3594C124.747 57.3594 124.917 57.4245 125.047 57.5547C125.177 57.6589 125.359 57.6979 125.594 57.6719C125.698 57.9323 125.841 58.1146 126.023 58.2188C126.206 58.2969 126.388 58.362 126.57 58.4141C126.779 58.4661 126.974 58.5443 127.156 58.6484C127.339 58.7526 127.469 58.9349 127.547 59.1953C127.938 59.2214 128.289 59.2995 128.602 59.4297C128.94 59.5599 129.24 59.7682 129.5 60.0547H129.969C130.802 60.0547 131.609 60.1328 132.391 60.2891C133.172 60.4453 133.966 60.5234 134.773 60.5234C135.19 60.5234 135.594 60.4974 135.984 60.4453C136.375 60.3672 136.753 60.237 137.117 60.0547C137.247 60.1328 137.391 60.2109 137.547 60.2891C137.703 60.3672 137.872 60.4062 138.055 60.4062C138.185 60.4062 138.38 60.3802 138.641 60.3281C138.667 60.6146 138.758 60.888 138.914 61.1484C139.096 61.4089 139.188 61.6953 139.188 62.0078ZM153.953 59.0781C153.953 59.5208 153.836 59.9115 153.602 60.25C153.393 60.5625 153.315 60.9531 153.367 61.4219C153.003 61.6302 152.703 61.9036 152.469 62.2422C152.234 62.5807 152.013 62.9323 151.805 63.2969C150.086 64.4167 148.237 65.3151 146.258 65.9922C144.305 66.6953 142.286 67.0469 140.203 67.0469C140.073 67.0469 139.956 66.9818 139.852 66.8516C139.747 66.7474 139.643 66.6302 139.539 66.5C139.435 66.3698 139.318 66.2396 139.188 66.1094C139.083 66.0052 138.953 65.9531 138.797 65.9531C138.615 65.9531 138.471 65.9922 138.367 66.0703C138.367 66.0182 138.367 65.9661 138.367 65.9141C138.393 65.888 138.406 65.849 138.406 65.7969C138.406 65.4844 138.367 65.1589 138.289 64.8203C138.211 64.5078 138.172 64.1953 138.172 63.8828C138.172 63.5182 138.237 63.2188 138.367 62.9844H138.836C139.096 62.9844 139.344 62.9714 139.578 62.9453C139.839 62.8932 140.112 62.8672 140.398 62.8672C140.685 62.8672 140.945 62.9453 141.18 63.1016C142.612 63.0495 143.966 62.7891 145.242 62.3203C146.544 61.8255 147.859 61.3438 149.188 60.875C149.396 60.5885 149.513 60.276 149.539 59.9375C149.591 59.5729 149.695 59.2344 149.852 58.9219C149.174 58.349 148.484 57.9062 147.781 57.5938C147.104 57.2552 146.31 57.138 145.398 57.2422C144.852 56.9036 144.266 56.7083 143.641 56.6562C143.042 56.6042 142.43 56.526 141.805 56.4219C141.648 56.3958 141.479 56.3698 141.297 56.3438C141.141 56.2917 140.971 56.2656 140.789 56.2656C140.659 56.2656 140.529 56.3047 140.398 56.3828C140.294 56.4349 140.268 56.526 140.32 56.6562C140.19 56.4479 140.008 56.3307 139.773 56.3047C139.565 56.2526 139.383 56.1484 139.227 55.9922C138.393 55.9401 137.664 55.7969 137.039 55.5625C136.414 55.3021 135.724 55.0156 134.969 54.7031C134.76 54.625 134.552 54.5729 134.344 54.5469C134.161 54.4948 133.979 54.4167 133.797 54.3125C133.328 54.0781 132.951 53.7656 132.664 53.375C132.378 52.9844 132.156 52.5547 132 52.0859C131.818 51.5911 131.688 51.0833 131.609 50.5625C131.531 50.0417 131.453 49.5599 131.375 49.1172C131.609 48.7005 131.831 48.2708 132.039 47.8281C132.221 47.3854 132.378 46.9167 132.508 46.4219C132.664 46.3438 132.82 46.2786 132.977 46.2266C133.133 46.1745 133.302 46.1094 133.484 46.0312C133.458 45.9792 133.445 45.9141 133.445 45.8359C133.445 45.7057 133.484 45.5755 133.562 45.4453C133.667 45.3151 133.693 45.1849 133.641 45.0547C134.214 44.5339 134.76 44 135.281 43.4531C135.828 42.8802 136.297 42.2552 136.688 41.5781C137.078 41.4479 137.391 41.2526 137.625 40.9922C137.859 40.7318 138.094 40.4714 138.328 40.2109C138.562 39.9245 138.823 39.6771 139.109 39.4688C139.396 39.2344 139.76 39.0911 140.203 39.0391C140.307 38.8568 140.451 38.7135 140.633 38.6094C140.815 38.4792 140.997 38.362 141.18 38.2578C141.362 38.1536 141.531 38.0365 141.688 37.9062C141.844 37.776 141.961 37.5938 142.039 37.3594C142.456 37.3594 142.833 37.2812 143.172 37.125C143.536 36.9688 143.888 36.7995 144.227 36.6172C144.565 36.4349 144.904 36.2656 145.242 36.1094C145.607 35.9531 145.997 35.875 146.414 35.875C146.518 35.875 146.622 35.888 146.727 35.9141C146.831 35.9141 146.948 35.9271 147.078 35.9531C147.26 36.1354 147.378 36.3568 147.43 36.6172C147.508 36.8516 147.56 37.112 147.586 37.3984C147.612 37.6849 147.625 37.9714 147.625 38.2578C147.651 38.5443 147.703 38.8047 147.781 39.0391C147.547 39.4818 147.286 39.9245 147 40.3672C146.74 40.8099 146.388 41.1484 145.945 41.3828H145.867C145.685 41.4089 145.516 41.3698 145.359 41.2656C145.203 41.1615 145.021 41.1094 144.812 41.1094C144.682 41.1094 144.578 41.1484 144.5 41.2266L144.305 41.4219C144.253 41.474 144.174 41.526 144.07 41.5781C143.992 41.6302 143.875 41.6302 143.719 41.5781C143.354 41.7083 143.211 41.9297 143.289 42.2422C142.794 42.2943 142.378 42.4505 142.039 42.7109C141.701 42.9453 141.388 43.2188 141.102 43.5312C140.815 43.8177 140.529 44.0911 140.242 44.3516C139.956 44.5859 139.617 44.7161 139.227 44.7422C138.784 45.5234 138.237 46.2135 137.586 46.8125C136.961 47.4115 136.44 48.0885 136.023 48.8438C136.102 49.0521 136.154 49.2734 136.18 49.5078C136.206 49.7422 136.245 49.9896 136.297 50.25C136.531 50.5625 136.805 50.8359 137.117 51.0703C137.456 51.3047 137.781 51.5391 138.094 51.7734H138.211C138.732 51.7734 139.214 51.8776 139.656 52.0859C140.099 52.2682 140.568 52.3594 141.062 52.3594C141.323 52.3594 141.544 52.3073 141.727 52.2031C142.404 52.3594 143.068 52.4896 143.719 52.5938C144.396 52.6979 145.073 52.776 145.75 52.8281C146.089 52.8802 146.427 52.9062 146.766 52.9062C147.13 52.9062 147.469 52.9453 147.781 53.0234C148.068 53.1016 148.354 53.2057 148.641 53.3359C148.927 53.4401 149.214 53.5573 149.5 53.6875C150.099 53.9479 150.659 54.2344 151.18 54.5469C151.727 54.8594 152.208 55.237 152.625 55.6797C153.042 56.0964 153.367 56.5911 153.602 57.1641C153.836 57.7109 153.953 58.349 153.953 59.0781ZM185.32 61.1484C185.242 61.513 185.073 61.8125 184.812 62.0469C184.578 62.2552 184.292 62.4245 183.953 62.5547C183.615 62.6849 183.263 62.776 182.898 62.8281C182.56 62.8542 182.247 62.8672 181.961 62.8672C181.831 62.8672 181.701 62.8672 181.57 62.8672C181.466 62.8411 181.349 62.8281 181.219 62.8281C181.089 62.8281 181.023 62.8932 181.023 63.0234C181.023 63.1536 180.958 63.2448 180.828 63.2969C180.698 63.2448 180.568 63.2057 180.438 63.1797C180.307 63.1536 180.177 63.1406 180.047 63.1406C179.865 63.1406 179.682 63.1536 179.5 63.1797C179.344 63.2057 179.188 63.2188 179.031 63.2188C178.823 63.2188 178.667 63.1927 178.562 63.1406C178.484 63.0885 178.406 63.0365 178.328 62.9844C178.276 62.9062 178.211 62.8281 178.133 62.75C178.081 62.6719 177.99 62.6068 177.859 62.5547C177.677 62.4766 177.521 62.4635 177.391 62.5156C177.286 62.5677 177.117 62.4896 176.883 62.2812C176.57 62.0208 176.297 61.7083 176.062 61.3438C175.854 60.9531 175.646 60.5495 175.438 60.1328C175.229 59.7161 175.008 59.2995 174.773 58.8828C174.539 58.4661 174.266 58.1016 173.953 57.7891H173.641C173.172 57.7891 172.846 57.9844 172.664 58.375C172.534 58.2969 172.404 58.2057 172.273 58.1016C172.143 57.9714 172 57.8672 171.844 57.7891C171.245 57.9714 170.62 58.1276 169.969 58.2578C169.318 58.388 168.667 58.4531 168.016 58.4531H167.469C167.312 58.4531 167.143 58.4271 166.961 58.375C166.701 58.4792 166.466 58.6094 166.258 58.7656C166.049 58.8958 165.815 58.9609 165.555 58.9609C165.398 58.9609 165.216 58.9089 165.008 58.8047C164.852 58.8047 164.773 58.8698 164.773 59C164.799 59.1302 164.721 59.1953 164.539 59.1953H164.188C163.823 59.1953 163.458 59.2083 163.094 59.2344C162.755 59.2604 162.404 59.2734 162.039 59.2734C161.544 59.2734 161.036 59.2083 160.516 59.0781C160.385 59.1562 160.242 59.1953 160.086 59.1953C159.982 59.2474 159.904 59.3385 159.852 59.4688C159.799 59.5729 159.747 59.6771 159.695 59.7812C159.643 59.8594 159.565 59.9375 159.461 60.0156C159.383 60.0677 159.266 60.0807 159.109 60.0547C159.057 60.3672 158.927 60.6146 158.719 60.7969C158.51 60.9792 158.406 61.2526 158.406 61.6172C158.12 61.7734 157.885 61.9688 157.703 62.2031C157.521 62.4375 157.339 62.6849 157.156 62.9453C156.974 63.2057 156.779 63.4531 156.57 63.6875C156.388 63.9219 156.154 64.1042 155.867 64.2344C155.737 64.3906 155.698 64.638 155.75 64.9766C155.464 65.2109 155.112 65.4193 154.695 65.6016C154.279 65.7839 153.888 65.875 153.523 65.875C152.768 65.875 152.247 65.4714 151.961 64.6641C151.961 64.4036 151.987 64.1302 152.039 63.8438C152.065 63.5312 152.117 63.2448 152.195 62.9844C152.273 62.6979 152.391 62.4505 152.547 62.2422C152.703 62.0078 152.924 61.8385 153.211 61.7344C153.211 61.5 153.133 61.3438 152.977 61.2656C152.82 61.1615 152.755 60.9922 152.781 60.7578C153.484 60.4193 154.096 59.9766 154.617 59.4297C155.138 58.8828 155.607 58.3099 156.023 57.7109C156.466 57.0859 156.909 56.4609 157.352 55.8359C157.794 55.2109 158.289 54.651 158.836 54.1562V53.3359C159.617 52.5026 160.125 51.5651 160.359 50.5234C160.646 50.4714 160.828 50.3411 160.906 50.1328C161.01 49.9245 161.062 49.6771 161.062 49.3906C161.193 49.3906 161.271 49.3385 161.297 49.2344C161.349 49.1042 161.466 49.0651 161.648 49.1172C161.883 48.4922 162.143 47.9193 162.43 47.3984C162.716 46.8776 163.003 46.3568 163.289 45.8359C163.576 45.2891 163.823 44.7292 164.031 44.1562C164.266 43.5833 164.435 42.9453 164.539 42.2422C164.904 42.2161 165.099 42.0469 165.125 41.7344C165.177 41.3958 165.229 41.0964 165.281 40.8359C165.672 40.4714 165.958 40.0417 166.141 39.5469C166.349 39.0521 166.531 38.5443 166.688 38.0234C166.844 37.4766 167.013 36.9427 167.195 36.4219C167.404 35.875 167.69 35.3932 168.055 34.9766V34.8594C168.055 34.7292 168.003 34.651 167.898 34.625C167.794 34.5729 167.742 34.4818 167.742 34.3516C167.768 34.3255 167.781 34.2995 167.781 34.2734C168.094 34.1432 168.328 33.9349 168.484 33.6484C168.641 33.3359 168.875 33.1146 169.188 32.9844C169.734 33.4271 170.216 33.7005 170.633 33.8047C171.049 33.8828 171.596 33.9479 172.273 34C172.612 34.3646 172.794 34.8073 172.82 35.3281C172.872 35.8229 172.964 36.3177 173.094 36.8125C173.302 37.6458 173.523 38.4661 173.758 39.2734C174.018 40.0547 174.214 40.862 174.344 41.6953C174.422 42.1901 174.565 42.6589 174.773 43.1016C174.982 43.5443 175.125 44 175.203 44.4688C175.255 44.8333 175.255 45.25 175.203 45.7188C175.151 46.1615 175.203 46.5521 175.359 46.8906L175.633 47.5156C175.763 47.8021 175.867 48.1016 175.945 48.4141C176.049 48.7266 176.141 49.0391 176.219 49.3516C176.427 50.1328 176.609 50.9792 176.766 51.8906C176.948 52.776 177.221 53.5833 177.586 54.3125C177.716 54.5729 177.911 54.7552 178.172 54.8594C178.458 54.9635 178.771 55.0417 179.109 55.0938C179.448 55.1198 179.773 55.1328 180.086 55.1328C180.424 55.1068 180.711 55.0938 180.945 55.0938H181.336C181.492 55.0938 181.648 55.1198 181.805 55.1719C181.909 55.3802 181.961 55.5625 181.961 55.7188C181.961 56.0312 181.857 56.2786 181.648 56.4609C181.44 56.6432 181.336 56.8516 181.336 57.0859C181.336 57.2161 181.388 57.3594 181.492 57.5156C181.388 57.4896 181.232 57.4766 181.023 57.4766C180.424 57.4766 179.839 57.5807 179.266 57.7891C179.474 58.2318 179.747 58.6094 180.086 58.9219C180.451 59.2083 180.828 59.4818 181.219 59.7422C181.479 59.5339 181.753 59.4297 182.039 59.4297C182.352 59.4297 182.638 59.5078 182.898 59.6641C183.185 59.7943 183.484 59.8594 183.797 59.8594C184.031 59.8594 184.201 59.8203 184.305 59.7422C184.513 59.9766 184.682 60.224 184.812 60.4844C184.943 60.7188 185.112 60.9401 185.32 61.1484ZM173.094 54.8984C173.042 54.4557 172.951 54.1432 172.82 53.9609C172.716 53.7526 172.625 53.5052 172.547 53.2188C172.443 52.8542 172.365 52.4635 172.312 52.0469C172.286 51.6302 172.234 51.2266 172.156 50.8359C171.974 49.9505 171.766 49.0651 171.531 48.1797C171.323 47.2943 171.049 46.4349 170.711 45.6016C170.815 45.4453 170.867 45.3021 170.867 45.1719V45.0547C170.633 44.7943 170.464 44.4818 170.359 44.1172C170.255 43.7266 170.151 43.349 170.047 42.9844C169.969 42.5938 169.852 42.2422 169.695 41.9297C169.565 41.5911 169.344 41.3177 169.031 41.1094C168.953 41.2656 168.914 41.4479 168.914 41.6562C168.914 41.8385 168.927 42.0078 168.953 42.1641C169.005 42.3203 169.031 42.4896 169.031 42.6719C168.771 42.8021 168.576 43.0104 168.445 43.2969C168.341 43.5573 168.159 43.7656 167.898 43.9219C167.69 44.7552 167.391 45.5495 167 46.3047C166.609 47.0339 166.193 47.763 165.75 48.4922C165.333 49.2214 164.93 49.9635 164.539 50.7188C164.148 51.4479 163.836 52.2161 163.602 53.0234C163.263 53.2578 163.029 53.5573 162.898 53.9219C162.794 54.2865 162.742 54.651 162.742 55.0156C162.977 55.1458 163.237 55.224 163.523 55.25C163.836 55.25 164.135 55.25 164.422 55.25C164.708 55.25 164.982 55.276 165.242 55.3281C165.503 55.3802 165.737 55.5104 165.945 55.7188C166.284 55.6146 166.648 55.5495 167.039 55.5234C167.456 55.4714 167.794 55.3542 168.055 55.1719C168.576 55.3542 169.135 55.4453 169.734 55.4453C170.047 55.4453 170.346 55.4193 170.633 55.3672C170.945 55.3151 171.245 55.25 171.531 55.1719C171.766 55.224 171.948 55.3151 172.078 55.4453C172.208 55.5495 172.404 55.5885 172.664 55.5625C172.794 55.4583 172.872 55.3542 172.898 55.25C172.924 55.1198 172.99 55.0026 173.094 54.8984ZM206.297 53.9609C206.297 54.2474 206.193 54.4688 205.984 54.625C205.776 54.7552 205.672 54.9375 205.672 55.1719C205.672 55.276 205.724 55.4062 205.828 55.5625C205.464 55.5625 205.216 55.6797 205.086 55.9141C204.956 56.1484 204.826 56.4089 204.695 56.6953H204.188C204.057 56.6953 203.953 56.7214 203.875 56.7734C203.797 56.8255 203.719 56.9036 203.641 57.0078C203.589 57.0859 203.51 57.2161 203.406 57.3984C202.911 57.5026 202.43 57.6719 201.961 57.9062C201.518 58.1146 201.076 58.349 200.633 58.6094C200.216 58.8438 199.786 59.0911 199.344 59.3516C198.901 59.5859 198.445 59.7812 197.977 59.9375C197.742 60.3281 197.404 60.6406 196.961 60.875H196.844C196.714 60.901 196.596 60.888 196.492 60.8359C196.414 60.7578 196.31 60.7188 196.18 60.7188C196.102 60.7188 196.049 60.7318 196.023 60.7578C195.242 61.2786 194.37 61.5391 193.406 61.5391C193.146 61.5391 192.898 61.526 192.664 61.5C192.43 61.4479 192.182 61.4219 191.922 61.4219C191.844 61.4219 191.792 61.4479 191.766 61.5L191.688 61.6562C191.661 61.7083 191.622 61.7604 191.57 61.8125C191.544 61.8646 191.453 61.8906 191.297 61.8906C191.01 61.8906 190.724 61.8516 190.438 61.7734C190.151 61.6953 189.852 61.6823 189.539 61.7344C188.94 61.3958 188.471 61.0703 188.133 60.7578C187.794 60.4453 187.482 59.9766 187.195 59.3516C187.065 59.0651 186.883 58.7917 186.648 58.5312C186.44 58.2708 186.284 57.9844 186.18 57.6719C186.154 57.5677 186.115 57.3854 186.062 57.125C186.01 56.8385 185.958 56.5391 185.906 56.2266C185.854 55.9141 185.802 55.6146 185.75 55.3281C185.724 55.0417 185.711 54.8464 185.711 54.7422C185.711 54.4297 185.724 54.1302 185.75 53.8438C185.802 53.5312 185.854 53.2188 185.906 52.9062C186.062 51.9167 186.167 50.9271 186.219 49.9375C186.297 48.9219 186.518 47.9453 186.883 47.0078C186.831 46.7214 186.805 46.4479 186.805 46.1875V45.3281C186.805 44.8333 186.74 44.4167 186.609 44.0781C186.818 43.7396 186.922 43.362 186.922 42.9453C186.922 42.4766 186.727 42.2031 186.336 42.125V42.0078C186.336 41.4609 186.154 41.0312 185.789 40.7188C185.789 39.8073 186.01 39.1302 186.453 38.6875C186.922 38.2188 187.534 37.8151 188.289 37.4766C188.393 37.3203 188.432 37.1901 188.406 37.0859C188.589 37.138 188.758 37.1901 188.914 37.2422C189.07 37.2943 189.227 37.3203 189.383 37.3203C189.643 37.3203 189.878 37.2812 190.086 37.2031C190.164 37.5156 190.359 37.7109 190.672 37.7891C191.01 37.8411 191.284 37.9193 191.492 38.0234V38.5312C191.492 39.3385 191.688 40.1068 192.078 40.8359C191.974 41.0443 191.909 41.2656 191.883 41.5C191.857 41.7344 191.844 41.9557 191.844 42.1641C191.844 42.4766 191.857 42.7891 191.883 43.1016C191.909 43.4141 191.922 43.7135 191.922 44C191.922 44.3125 191.883 44.625 191.805 44.9375C191.753 45.25 191.609 45.5234 191.375 45.7578C191.349 46.0964 191.323 46.487 191.297 46.9297C191.297 47.3464 191.271 47.776 191.219 48.2188C191.193 48.6615 191.128 49.0911 191.023 49.5078C190.919 49.9245 190.763 50.263 190.555 50.5234C190.529 50.9141 190.503 51.3177 190.477 51.7344C190.477 52.125 190.477 52.5026 190.477 52.8672C190.477 53.4401 190.503 54.1172 190.555 54.8984C190.633 55.6797 190.815 56.3307 191.102 56.8516C191.232 57.0599 191.479 57.2161 191.844 57.3203C192.234 57.4245 192.547 57.4766 192.781 57.4766C193.068 57.4766 193.354 57.4375 193.641 57.3594C193.953 57.2552 194.174 57.0859 194.305 56.8516C194.461 56.8776 194.565 56.9557 194.617 57.0859C194.669 57.2161 194.76 57.3203 194.891 57.3984C196.375 56.7734 197.859 56.1745 199.344 55.6016C200.828 55.0286 202.286 54.3646 203.719 53.6094C203.927 53.7135 204.148 53.7656 204.383 53.7656C204.643 53.7656 204.904 53.7396 205.164 53.6875C205.424 53.6354 205.685 53.6094 205.945 53.6094H206.219C206.271 53.7656 206.297 53.8828 206.297 53.9609ZM236.453 38.8828C236.349 39.2214 236.18 39.5339 235.945 39.8203L235.281 40.6406C235.073 40.901 234.891 41.1875 234.734 41.5C234.604 41.7865 234.565 42.125 234.617 42.5156C234.565 42.5156 234.5 42.5156 234.422 42.5156C234.344 42.4896 234.279 42.4766 234.227 42.4766C233.81 42.4766 233.484 42.5807 233.25 42.7891C233.042 42.9714 232.755 43.1276 232.391 43.2578C232.339 43.1016 232.273 42.9583 232.195 42.8281C232.117 42.6719 232 42.5677 231.844 42.5156C231.219 42.6458 230.594 42.75 229.969 42.8281C229.344 42.8802 228.719 42.9583 228.094 43.0625C227.807 43.1146 227.521 43.1927 227.234 43.2969C226.948 43.375 226.648 43.4531 226.336 43.5312C226.18 43.5833 226.01 43.6094 225.828 43.6094C225.646 43.5833 225.464 43.5833 225.281 43.6094C224.656 43.6354 223.979 43.6875 223.25 43.7656C222.521 43.8177 221.87 44.013 221.297 44.3516C221.036 44.2995 220.763 44.2604 220.477 44.2344C220.19 44.2083 219.904 44.1953 219.617 44.1953C218.992 44.1953 218.302 44.2604 217.547 44.3906C216.818 44.4948 216.167 44.7161 215.594 45.0547C215.464 45.0026 215.32 44.9635 215.164 44.9375C215.034 44.9115 214.878 44.8984 214.695 44.8984C214.643 44.8984 214.604 44.9115 214.578 44.9375C214.552 44.9375 214.513 44.9375 214.461 44.9375C214.435 45.1719 214.461 45.4062 214.539 45.6406C214.643 45.849 214.812 46.0182 215.047 46.1484C214.943 46.4349 214.891 46.7474 214.891 47.0859C214.891 47.5286 214.917 47.9714 214.969 48.4141C215.047 48.8568 215.086 49.2995 215.086 49.7422C215.086 50.237 215.021 50.6276 214.891 50.9141C215.151 51.6953 215.281 52.5286 215.281 53.4141C215.281 53.7266 215.255 54.0391 215.203 54.3516C215.177 54.638 215.164 54.9505 215.164 55.2891C215.164 55.5755 215.268 55.8099 215.477 55.9922C215.685 56.1484 215.789 56.3698 215.789 56.6562C215.789 56.7604 215.763 56.8646 215.711 56.9688C216.076 56.8906 216.427 56.7865 216.766 56.6562C217.104 56.5 217.456 56.4219 217.82 56.4219C218.029 56.4219 218.224 56.4609 218.406 56.5391C218.615 56.6172 218.797 56.7214 218.953 56.8516C218.927 56.9818 218.901 57.125 218.875 57.2812C218.875 57.4375 218.875 57.5938 218.875 57.75C218.875 58.0365 218.875 58.3099 218.875 58.5703C218.901 58.8047 218.927 59.0651 218.953 59.3516C218.745 59.7161 218.497 60.0417 218.211 60.3281C217.951 60.6146 217.768 60.9792 217.664 61.4219C217.273 61.4219 216.922 61.513 216.609 61.6953C216.323 61.8516 216.049 62.0339 215.789 62.2422C215.529 62.4245 215.268 62.6068 215.008 62.7891C214.747 62.9453 214.461 63.0234 214.148 63.0234C213.758 63.0234 213.484 62.9714 213.328 62.8672C213.172 62.737 213.055 62.6068 212.977 62.4766C212.898 62.3464 212.82 62.2292 212.742 62.125C212.69 62.0208 212.56 61.9818 212.352 62.0078C212.299 61.6693 212.195 61.3568 212.039 61.0703C211.883 60.7578 211.714 60.4583 211.531 60.1719C211.375 59.8854 211.206 59.599 211.023 59.3125C210.867 59 210.75 58.6875 210.672 58.375C210.516 57.6979 210.451 56.9948 210.477 56.2656C210.503 55.5365 210.385 54.8333 210.125 54.1562C210.177 53.7917 210.216 53.4271 210.242 53.0625C210.268 52.6719 210.281 52.2943 210.281 51.9297C210.281 51.2005 210.255 50.4844 210.203 49.7812C210.177 49.0521 210.151 48.3099 210.125 47.5547C209.943 47.3203 209.826 47.0599 209.773 46.7734C209.747 46.4609 209.721 46.1615 209.695 45.875C209.617 45.7969 209.526 45.7188 209.422 45.6406C209.344 45.5625 209.292 45.4583 209.266 45.3281C209.057 45.276 208.901 45.25 208.797 45.25C208.432 45.25 208.12 45.3411 207.859 45.5234C207.625 45.6797 207.404 45.7578 207.195 45.7578C206.987 45.7578 206.792 45.7318 206.609 45.6797C206.427 45.6276 206.245 45.6016 206.062 45.6016C205.906 45.6016 205.815 45.6406 205.789 45.7188C205.789 45.7708 205.737 45.8229 205.633 45.875C205.555 45.9271 205.372 45.9792 205.086 46.0312C204.799 46.0833 204.474 46.1354 204.109 46.1875C203.771 46.2135 203.432 46.2396 203.094 46.2656C202.781 46.2917 202.573 46.3047 202.469 46.3047C202.052 46.3047 201.74 46.2266 201.531 46.0703C201.297 45.888 201.023 45.6927 200.711 45.4844C200.763 45.3281 200.789 45.224 200.789 45.1719C200.789 44.9115 200.711 44.7031 200.555 44.5469C200.398 44.3646 200.32 44.2083 200.32 44.0781C200.32 43.7917 200.438 43.5703 200.672 43.4141C200.88 43.2578 200.997 43.0104 201.023 42.6719C201.622 42.4115 202.234 42.2161 202.859 42.0859C203.484 41.9557 204.122 41.8516 204.773 41.7734C205.424 41.6953 206.062 41.6042 206.688 41.5C207.339 41.3958 207.977 41.2266 208.602 40.9922C208.784 41.0182 208.953 41.0443 209.109 41.0703C209.292 41.0703 209.474 41.0703 209.656 41.0703C210.438 41.0703 211.206 40.9922 211.961 40.8359C212.742 40.6536 213.536 40.5625 214.344 40.5625C214.552 40.5625 214.76 40.5755 214.969 40.6016C215.177 40.6276 215.385 40.6667 215.594 40.7188C216.635 40.5625 217.664 40.3932 218.68 40.2109C219.721 40.0286 220.789 39.8724 221.883 39.7422C222.404 39.6901 222.911 39.651 223.406 39.625C223.927 39.5729 224.448 39.5078 224.969 39.4297C225.151 39.4036 225.281 39.3646 225.359 39.3125C225.464 39.2344 225.516 39.0911 225.516 38.8828C225.75 38.987 226.01 39.0391 226.297 39.0391C226.74 39.0391 227.169 38.9609 227.586 38.8047C228.003 38.6484 228.432 38.5703 228.875 38.5703C228.979 38.5703 229.07 38.5833 229.148 38.6094C229.227 38.6094 229.305 38.6094 229.383 38.6094C229.565 38.6094 229.656 38.5312 229.656 38.375C229.682 38.1927 229.812 38.0755 230.047 38.0234C230.229 37.9714 230.49 37.9323 230.828 37.9062C231.167 37.8802 231.518 37.8542 231.883 37.8281C232.273 37.776 232.625 37.724 232.938 37.6719C233.276 37.5938 233.523 37.4896 233.68 37.3594L233.953 36.9297C234.422 36.9557 234.76 37.1641 234.969 37.5547C235.203 37.9193 235.333 38.3229 235.359 38.7656C235.464 38.8698 235.607 38.9219 235.789 38.9219C235.997 38.8958 236.18 38.8828 236.336 38.8828H236.453Z" fill="#451412"/>
</g>
<g filter="url(#filter1_d_725_95)">
<path d="M243.25 14.701C243.25 14.1852 243.026 13.6906 242.628 13.3259C242.229 12.9612 241.689 12.7563 241.125 12.7563C240.561 12.7563 240.021 12.9612 239.622 13.3259C239.224 13.6906 239 14.1852 239 14.701V26.3689C239 28.6104 239.845 30.7832 241.394 32.5196C242.943 34.256 245.1 35.4493 247.5 35.8976V65.2618C247.5 65.7776 247.724 66.2722 248.122 66.6369C248.521 67.0016 249.061 67.2064 249.625 67.2064C250.189 67.2064 250.729 67.0016 251.128 66.6369C251.526 66.2722 251.75 65.7776 251.75 65.2618V35.8976C254.15 35.4493 256.307 34.256 257.856 32.5196C259.405 30.7832 260.25 28.6104 260.25 26.3689V14.701C260.25 14.1852 260.026 13.6906 259.628 13.3259C259.229 12.9612 258.689 12.7563 258.125 12.7563C257.561 12.7563 257.021 12.9612 256.622 13.3259C256.224 13.6906 256 14.1852 256 14.701V26.3689C256.001 27.5758 255.592 28.7533 254.831 29.7389C254.07 30.7246 252.993 31.4699 251.75 31.8722V14.701C251.75 14.1852 251.526 13.6906 251.128 13.3259C250.729 12.9612 250.189 12.7563 249.625 12.7563C249.061 12.7563 248.521 12.9612 248.122 13.3259C247.724 13.6906 247.5 14.1852 247.5 14.701V31.8722C246.257 31.4699 245.18 30.7246 244.419 29.7389C243.658 28.7533 243.249 27.5758 243.25 26.3689V14.701ZM273 65.2618V39.9814H266.625C266.061 39.9814 265.521 39.7765 265.122 39.4118C264.724 39.0471 264.5 38.5525 264.5 38.0368V22.4796C264.5 19.901 265.885 17.4896 267.777 15.755C269.672 14.0243 272.307 12.7563 275.125 12.7563C275.689 12.7563 276.229 12.9612 276.628 13.3259C277.026 13.6906 277.25 14.1852 277.25 14.701V65.2618C277.25 65.7776 277.026 66.2722 276.628 66.6369C276.229 67.0016 275.689 67.2064 275.125 67.2064C274.561 67.2064 274.021 67.0016 273.622 66.6369C273.224 66.2722 273 65.7776 273 65.2618Z" fill="#451412"/>
</g>
<defs>
<filter id="filter0_d_725_95" x="0.617188" y="27.0078" width="239.836" height="56.2812" filterUnits="userSpaceOnUse" color-interpolation-filters="sRGB">
<feFlood flood-opacity="0" result="BackgroundImageFix"/>
<feColorMatrix in="SourceAlpha" type="matrix" values="0 0 0 0 0 0 0 0 0 0 0 0 0 0 0 0 0 0 127 0" result="hardAlpha"/>
<feOffset dy="4"/>
<feGaussianBlur stdDeviation="2"/>
<feComposite in2="hardAlpha" operator="out"/>
<feColorMatrix type="matrix" values="0 0 0 0 0 0 0 0 0 0 0 0 0 0 0 0 0 0 0.25 0"/>
<feBlend mode="normal" in2="BackgroundImageFix" result="effect1_dropShadow_725_95"/>
<feBlend mode="normal" in="SourceGraphic" in2="effect1_dropShadow_725_95" result="shape"/>
</filter>
<filter id="filter1_d_725_95" x="235" y="12.7563" width="46.25" height="62.4501" filterUnits="userSpaceOnUse" color-interpolation-filters="sRGB">
<feFlood flood-opacity="0" result="BackgroundImageFix"/>
<feColorMatrix in="SourceAlpha" type="matrix" values="0 0 0 0 0 0 0 0 0 0 0 0 0 0 0 0 0 0 127 0" result="hardAlpha"/>
<feOffset dy="4"/>
<feGaussianBlur stdDeviation="2"/>
<feComposite in2="hardAlpha" operator="out"/>
<feColorMatrix type="matrix" values="0 0 0 0 0 0 0 0 0 0 0 0 0 0 0 0 0 0 0.25 0"/>
<feBlend mode="normal" in2="BackgroundImageFix" result="effect1_dropShadow_725_95"/>
<feBlend mode="normal" in="SourceGraphic" in2="effect1_dropShadow_725_95" result="shape"/>
</filter>
</defs>
</svg>
