<svg width="12" height="12" viewBox="0 0 12 12" fill="none" xmlns="http://www.w3.org/2000/svg">
<path d="M12 9.65657C12 9.92593 11.9057 10.1549 11.7172 10.3434L10.3434 11.7172C10.1549 11.9057 9.92593 12 9.65657 12C9.38721 12 9.15825 11.9057 8.9697 11.7172L6 8.74747L3.0303 11.7172C2.84175 11.9057 2.61279 12 2.34343 12C2.07407 12 1.84512 11.9057 1.65657 11.7172L0.282828 10.3434C0.0942761 10.1549 0 9.92593 0 9.65657C0 9.38721 0.0942761 9.15825 0.282828 8.9697L3.25253 6L0.282828 3.0303C0.0942761 2.84175 0 2.61279 0 2.34343C0 2.07407 0.0942761 1.84512 0.282828 1.65657L1.65657 0.282828C1.84512 0.0942761 2.07407 0 2.34343 0C2.61279 0 2.84175 0.0942761 3.0303 0.282828L6 3.25253L8.9697 0.282828C9.15825 0.0942761 9.38721 0 9.65657 0C9.92593 0 10.1549 0.0942761 10.3434 0.282828L11.7172 1.65657C11.9057 1.84512 12 2.07407 12 2.34343C12 2.61279 11.9057 2.84175 11.7172 3.0303L8.74747 6L11.7172 8.9697C11.9057 9.15825 12 9.38721 12 9.65657Z" fill="#D69F3A"/>
</svg>
